<svg width="72" height="51" viewBox="0 0 72 51" fill="none" xmlns="http://www.w3.org/2000/svg"><path d="M26.677 48.716h1.5V2.153H18.003l-.44.445L3.932 16.38l-1.02 1.032.998 1.054 5.257 5.552 1.073 1.133 1.09-1.117 4.63-4.744v29.427h10.716zm35.409-2.877l.005-.004.006-.005c2.971-2.43 5.12-5.435 6.426-8.997 1.324-3.494 1.977-7.288 1.977-11.366 0-4.078-.653-7.871-1.977-11.365-1.306-3.565-3.459-6.553-6.437-8.941C59.02 2.703 55.326 1.5 51.088 1.5c-4.24 0-7.95 1.203-11.054 3.654l-.01.007c-2.98 2.39-5.134 5.38-6.44 8.949-1.279 3.492-1.909 7.282-1.909 11.357 0 4.075.63 7.866 1.909 11.358 1.305 3.565 3.456 6.574 6.43 9.005l.01.008.01.008c3.103 2.45 6.814 3.654 11.054 3.654 4.239 0 7.933-1.203 10.998-3.66zm-5.899-10.69l-.004.01-.005.008c-.566 1.103-1.261 1.857-2.059 2.343-.797.487-1.788.76-3.031.76-1.244 0-2.243-.273-3.054-.763-.812-.49-1.524-1.25-2.111-2.357-1.23-2.32-1.902-5.513-1.902-9.683 0-4.172.673-7.337 1.897-9.607l.005-.01c.587-1.107 1.299-1.867 2.11-2.357.812-.49 1.811-.764 3.055-.764 1.243 0 2.234.274 3.031.76.798.487 1.493 1.241 2.06 2.344l.006.014.007.013c1.224 2.27 1.898 5.435 1.898 9.607 0 4.17-.673 7.363-1.903 9.683zm-15.224 9.52z" stroke="#000" stroke-width="3"/></svg>