<svg width="44" height="70" viewBox="0 0 44 70" fill="none" xmlns="http://www.w3.org/2000/svg"><path d="M27.773 65.526a1.373 1.373 0 0 0-1.784.76c-.235.586-.832.98-1.485.98h-5.01c-.652 0-1.25-.394-1.485-.98a1.373 1.373 0 0 0-1.782-.76 1.366 1.366 0 0 0-.763 1.778c.659 1.638 2.24 2.696 4.03 2.696h5.01c1.79 0 3.372-1.058 4.03-2.696.283-.7-.059-1.497-.761-1.778z" fill="#000"/><path d="M43.876 58.483a6.746 6.746 0 0 0-3.246-4.551 6.79 6.79 0 0 0 2.437-6.288 17.188 17.188 0 0 0-3.937-8.616 17.318 17.318 0 0 0-5.652-4.349 15.609 15.609 0 0 0 4.259-10.722c0-7.168-4.847-13.23-11.445-15.097a5.904 5.904 0 0 0 1.39-3.819c0-2.78-2.269-5.041-5.057-5.041-1.125 0-2.18.365-2.968 1.027a3.727 3.727 0 0 0-1.35 2.897 1.37 1.37 0 0 0 1.37 1.367 1.37 1.37 0 0 0 1.372-1.367c0-.325.126-.596.375-.806.295-.247.721-.384 1.201-.384a2.313 2.313 0 0 1 2.314 2.307 3.2 3.2 0 0 1-.948 2.28 3.218 3.218 0 0 1-2.287.945c-.033 0-.066.003-.1.005-8.494.21-15.34 7.166-15.34 15.686 0 4.143 1.618 7.915 4.258 10.722a17.317 17.317 0 0 0-5.652 4.348 17.19 17.19 0 0 0-3.936 8.617 6.79 6.79 0 0 0 2.437 6.288 6.745 6.745 0 0 0-3.247 4.551 6.73 6.73 0 0 0 1.314 5.444l2.937 3.74a6.12 6.12 0 0 0 4.816 2.325 6.062 6.062 0 0 0 3.03-.807c2.614-1.504 3.734-4.743 2.605-7.534l-1.78-4.406a6.725 6.725 0 0 0-.417-.848h10.057a1.37 1.37 0 0 0 1.37-1.367 1.37 1.37 0 0 0-1.37-1.367H10.022V50.78c0-.37.303-.673.675-.673h22.606c.372 0 .675.302.675.673v3.072a6.752 6.752 0 0 0-3.023 3.393l-1.782 4.406c-1.128 2.79-.008 6.03 2.606 7.534a6.061 6.061 0 0 0 3.03.807 6.12 6.12 0 0 0 4.817-2.324l2.936-3.742a6.73 6.73 0 0 0 1.314-5.443zM9.006 23.958C9.005 16.813 14.834 11 22 11s12.994 5.812 12.995 12.957c0 7.144-5.83 12.956-12.995 12.956-7.165 0-12.995-5.812-12.995-12.957zm1.496 34.31l1.781 4.405a3.353 3.353 0 0 1-1.433 4.145 3.374 3.374 0 0 1-4.316-.835l-2.936-3.741a4.003 4.003 0 0 1-.782-3.238 4.013 4.013 0 0 1 1.94-2.712 4.035 4.035 0 0 1 3.324-.319 4.02 4.02 0 0 1 2.422 2.294zm22.81-13.63a1.37 1.37 0 0 0-1.37 1.368v1.367H12.067v-1.367a1.37 1.37 0 0 0-1.371-1.367 1.37 1.37 0 0 0-1.371 1.367v1.654a3.411 3.411 0 0 0-2.047 3.12v1.931a4.086 4.086 0 0 1-2.69-1.395 4.064 4.064 0 0 1-.943-3.265 14.444 14.444 0 0 1 9.148-11.376A15.682 15.682 0 0 0 22 39.648c3.435 0 6.616-1.104 9.206-2.973a14.444 14.444 0 0 1 9.148 11.376 4.063 4.063 0 0 1-.944 3.265 4.086 4.086 0 0 1-2.69 1.395v-1.93c0-1.39-.838-2.587-2.036-3.117v-1.658a1.37 1.37 0 0 0-1.372-1.367zm7.09 17.604l-2.936 3.74a3.375 3.375 0 0 1-4.316.835 3.353 3.353 0 0 1-1.433-4.144l1.781-4.406a4.02 4.02 0 0 1 3.734-2.513c.7 0 1.394.181 2.013.538a4.004 4.004 0 0 1 1.157 5.95z" fill="#000"/><path d="M29.101 54.063a1.384 1.384 0 0 0-.97-.4c-.36 0-.713.145-.968.4a1.376 1.376 0 0 0-.402.966 1.373 1.373 0 0 0 1.37 1.367c.361 0 .715-.145.97-.4.255-.254.402-.607.402-.967s-.147-.712-.402-.966zM25.78 28.626a1.374 1.374 0 0 0-1.928.202c-.456.56-1.13.882-1.852.882a2.377 2.377 0 0 1-1.852-.882 1.374 1.374 0 0 0-1.928-.202 1.364 1.364 0 0 0-.202 1.923A5.11 5.11 0 0 0 22 32.444c1.552 0 3.004-.69 3.982-1.895a1.364 1.364 0 0 0-.201-1.923zM18.535 22.99a3.2 3.2 0 0 0-4.511 0 1.364 1.364 0 0 0 0 1.934 1.374 1.374 0 0 0 1.939 0 .45.45 0 0 1 .633 0c.268.267.619.4.97.4a1.365 1.365 0 0 0 .97-2.334zM29.976 22.99a3.2 3.2 0 0 0-4.511 0 1.369 1.369 0 1 0 .97 2.334c.35 0 .701-.133.969-.4a.45.45 0 0 1 .633 0 1.374 1.374 0 0 0 1.94 0c.535-.534.535-1.4 0-1.933z" fill="#000"/></svg>