<svg width="62" height="93" viewBox="0 0 62 93" fill="none" xmlns="http://www.w3.org/2000/svg"><path d="M48.76 24.916c.388 0 .778-.03 1.168-.089 1.94-.297 3.645-1.306 4.8-2.842l7.006-9.318c.284-.378.345-.87.162-1.302a1.386 1.386 0 0 0-1.062-.818 46.437 46.437 0 0 0-6.227-.492 42.922 42.922 0 0 0-2.41-5.568 1.397 1.397 0 0 0-1.134-.722 1.412 1.412 0 0 0-1.232.552l-7.006 9.318a6.875 6.875 0 0 0-1.313 5.288 6.957 6.957 0 0 0 1.819 3.665 104.344 104.344 0 0 0-4.975 6.19V27.6c0-.744-.625-1.347-1.395-1.347s-1.394.603-1.394 1.346v5.146a64.497 64.497 0 0 0-3.172 5.297v-9.885l4.062-3.924a1.315 1.315 0 0 0 0-1.904 1.43 1.43 0 0 0-1.972 0l-2.09 2.019V20.18c3.39-.632 5.96-3.519 5.96-6.976V1.688c0-.467-.25-.9-.661-1.146a1.437 1.437 0 0 0-1.357-.058A45.602 45.602 0 0 0 31 3.62 45.563 45.563 0 0 0 25.662.484a1.437 1.437 0 0 0-1.356.058 1.337 1.337 0 0 0-.662 1.146v11.516c0 3.457 2.57 6.344 5.962 6.976v7.047l-3.581-3.459a1.43 1.43 0 0 0-1.972 0 1.315 1.315 0 0 0 0 1.905l5.553 5.363v7.006c-3.557-6.702-8.833-13.04-10.937-15.454a6.958 6.958 0 0 0 1.82-3.665 6.875 6.875 0 0 0-1.314-5.288L12.17 4.317a1.413 1.413 0 0 0-1.232-.552c-.482.035-.91.308-1.133.722-.06.11-1.337 2.499-2.411 5.568a46.557 46.557 0 0 0-6.227.492 1.386 1.386 0 0 0-1.062.818c-.183.432-.122.924.162 1.302l7.006 9.318c1.155 1.536 2.86 2.545 4.8 2.842a7.483 7.483 0 0 0 4.358-.622c.43.495 1.025 1.191 1.73 2.048h-1.225c-.77 0-1.394.603-1.394 1.347 0 .743.624 1.346 1.394 1.346h3.368c2.037 2.647 4.398 5.976 6.318 9.411a45.667 45.667 0 0 0-7.54-5.776c-8.35-5.132-15.874-6.268-16.19-6.313a1.43 1.43 0 0 0-1.116.311 1.328 1.328 0 0 0-.485 1.02c0 .216.03 5.356 2.69 12.512 2.401 6.461 7.502 15.844 18.174 24.123v4.935L16.24 90.591a1.31 1.31 0 0 0 .242 1.168c.264.332.672.526 1.105.526h26.826c.433 0 .841-.194 1.105-.526a1.31 1.31 0 0 0 .242-1.168L39.846 69.17v-4.935C50.517 55.955 55.618 46.572 58.02 40.11c2.66-7.156 2.69-12.296 2.69-12.511 0-.392-.177-.765-.485-1.02a1.427 1.427 0 0 0-1.117-.312c-.184.026-4.59.685-10.39 3.263-3.8 1.69-8.734 4.471-13.351 8.849 1.922-3.442 4.289-6.781 6.33-9.434h3.367c.77 0 1.395-.603 1.395-1.346 0-.744-.625-1.347-1.395-1.347h-1.223a97.956 97.956 0 0 1 1.73-2.048 7.488 7.488 0 0 0 3.19.711zm9.326-11.982l-2.105 2.8a21.29 21.29 0 0 0-.549-2.965c.982.032 1.892.096 2.654.165zm-52.067 2.8l-2.106-2.8c.762-.07 1.672-.133 2.655-.165a21.298 21.298 0 0 0-.549 2.966zm9.888 5.645a4.66 4.66 0 0 1-3.399.788 4.563 4.563 0 0 1-2.98-1.765c-2-2.659.122-8.943 1.773-12.655l5.618 7.47c1.48 1.969 1.026 4.733-1.012 6.162zm19.66-17.404V7.43a22.517 22.517 0 0 0-2.248-2.083 44.828 44.828 0 0 1 2.248-1.372zm-9.134 9.23V3.97c3.595 2.066 9.134 5.947 9.134 9.233 0 2.433-2.049 4.412-4.567 4.412-2.518 0-4.567-1.98-4.567-4.412zM6.648 39.314c-1.65-4.403-2.24-8.033-2.452-10.034 2.6.612 7.824 2.153 13.388 5.573 4.61 2.833 8.524 6.379 11.633 10.539 3.599 4.812 6.128 10.474 7.535 16.848h-3.248c-1.783-7.556-5.292-13.987-10.443-19.129a1.429 1.429 0 0 0-1.972-.03 1.315 1.315 0 0 0-.032 1.904c4.655 4.646 7.871 10.445 9.58 17.255h-6.599C13.825 54.364 8.944 45.445 6.648 39.316zm30.409 25.62v3.064H24.943v-3.065h12.114zm5.54 24.656h-5.905l-.236-1.71c-.102-.736-.803-1.255-1.567-1.156-.763.098-1.3.775-1.198 1.513l.187 1.353H19.402l5.218-18.899h6.65l1.627 11.788c.093.676.692 1.169 1.38 1.169.061 0 .123-.004.186-.013.763-.098 1.3-.775 1.198-1.512l-1.578-11.432h3.297l5.218 18.9zm7.199-57.573c3.37-1.507 6.272-2.327 8.008-2.736-.212 2.002-.803 5.631-2.452 10.034-2.19 5.844-6.727 14.224-15.997 21.819-1.342-5.79-3.578-11.024-6.67-15.61 5.361-7.225 12.233-11.327 17.11-13.507zm-4.715-16.8L50.7 7.746c1.653 3.71 3.776 9.992 1.772 12.656a4.563 4.563 0 0 1-2.98 1.765 4.66 4.66 0 0 1-3.398-.788c-2.038-1.43-2.492-4.193-1.012-6.161z" fill="#000"/><path d="M18.518 38.881a36.137 36.137 0 0 0-2.672-2.137c-.568-.411-1.313-.206-1.665.457-.351.663-.176 1.534.391 1.945.857.621 1.695 1.291 2.492 1.992.218.192.473.285.726.285.367 0 .729-.195.967-.563.401-.624.295-1.51-.239-1.979z" fill="#000"/></svg>