<svg width="57" height="56" viewBox="0 0 57 56" fill="none" xmlns="http://www.w3.org/2000/svg"><path d="M51.06 1.81A11.982 11.982 0 0 0 42.055.633c-3.079.807-5.65 2.748-7.242 5.465l-6.242 10.657-6.28-10.662C20.696 3.38 18.117 1.443 15.03.635A12.073 12.073 0 0 0 5.97 1.807C.267 5.034-1.695 12.209 1.597 17.8l2.298 3.9a3.644 3.644 0 0 0 2.234 1.68c.95.247 1.937.119 2.79-.361 1.753-.992 2.356-3.199 1.344-4.918L7.965 14.2c-1.267-2.153-.513-4.915 1.683-6.157a4.647 4.647 0 0 1 3.483-.45 4.555 4.555 0 0 1 2.793 2.1l5.606 9.517a4.83 4.83 0 0 0-2.93-.997c-2.656 0-4.817 2.114-4.817 4.712 0 1.258.5 2.441 1.41 3.333l.046.045-.047.046a4.63 4.63 0 0 0-1.41 3.33c0 2.484 1.983 4.505 4.479 4.678L8.758 50.583c-1.007 1.718-.406 3.924 1.34 4.916a3.682 3.682 0 0 0 2.774.363 3.629 3.629 0 0 0 2.231-1.682l13.11-22.382.274.269.39-.382L42.115 54.16a3.64 3.64 0 0 0 2.235 1.679 3.709 3.709 0 0 0 2.788-.36c1.754-.993 2.357-3.2 1.345-4.919l-9.555-16.224c2.393-.272 4.263-2.244 4.263-4.657 0-1.258-.501-2.441-1.41-3.333l-.047-.044.047-.046a4.634 4.634 0 0 0 1.41-3.33c0-2.6-2.162-4.713-4.818-4.713-.962 0-1.879.274-2.661.784l5.448-9.302a4.526 4.526 0 0 1 2.78-2.1 4.595 4.595 0 0 1 3.453.452c2.184 1.243 2.934 4.007 1.672 6.162L46.78 18.11c-1.007 1.719-.406 3.924 1.34 4.917.845.482 1.83.61 2.775.363a3.629 3.629 0 0 0 2.231-1.683l2.286-3.902c3.274-5.59 1.322-12.766-4.352-15.996zM33.322 12.263l2.156 3.515-2.185 3.73-2.156-3.515 2.185-3.73zm-3.232 5.518l2.156 3.514-.499.852-2.113-3.588.456-.778zm-.014 5.13c-.361.14-.695.347-.972.617l-.617.604-.618-.604a2.92 2.92 0 0 0-2.028-.821c-.042 0-.082.01-.123.012l-.914-1.55 2.166-3.531 3.106 5.272zm-4.155-7.056l-2.166 3.53-2.191-3.72 2.166-3.53 2.19 3.72zM2.849 7.633l3.179 1.864a6.226 6.226 0 0 0-.508 2.425H1.847a9.816 9.816 0 0 1 1.002-4.29zm.793 10.039l-.452-.77a9.7 9.7 0 0 1-1.18-3.183h3.768c.14.471.334.935.595 1.378l.567.963-3.298 1.612zm4.217-.051l.811 1.377a1.788 1.788 0 0 1-.673 2.465 1.859 1.859 0 0 1-2.51-.66l-.926-1.57 3.298-1.612zm.868-11.134a6.337 6.337 0 0 0-1.753 1.47L3.796 6.091a9.98 9.98 0 0 1 3.095-2.73c.05-.028.103-.05.153-.077L8.942 6.38c-.07.037-.144.068-.215.108zm3.602-.835a6.482 6.482 0 0 0-1.62.111L8.734 2.545a10.21 10.21 0 0 1 5.632-.214L12.33 5.652zm1.898.4l1.912-3.115a9.975 9.975 0 0 1 3.13 2.188l-2.01 3.278a6.346 6.346 0 0 0-3.032-2.35zm6.286 7.832l-2.192-3.72 2.155-3.514c.073.114.154.222.223.34l1.98 3.362-2.166 3.532zm-4.892 15.795c0-.779.31-1.51.872-2.06l1.347-1.317-1.346-1.316a2.864 2.864 0 0 1-.873-2.06c0-1.608 1.336-2.915 2.979-2.915.797 0 1.545.303 2.107.853l2.935 2.87-.042.049c-1.145-.784-3.23-1.975-5.333-1.975v1.798c1.896 0 3.946 1.387 4.711 1.96 0 .012.003.023.004.035-1.183.387-3.901 1.484-5.48 3.797l1.53.997c1.293-1.897 3.688-2.817 4.602-3.111.06.07.111.146.179.212l.617.604-3.724 3.64a2.99 2.99 0 0 1-2.106.854c-1.643 0-2.98-1.308-2.98-2.915zm-3.224 24.448a1.825 1.825 0 0 1-1.375-.18 1.796 1.796 0 0 1-.67-2.47l.347-.591 1.935 3.153c-.077.033-.155.066-.237.088zm1.506-1.514l-2.156-3.515 2.184-3.73 2.156 3.515-2.184 3.73zm3.231-5.517l-2.156-3.515 2.185-3.73 2.157 3.514-2.186 3.731zm3.232-5.518l-2.157-3.515 2.186-3.73 2.156 3.515-2.185 3.73zm3.232-5.518l-1.779-2.898c.06-.053.13-.094.188-.151l3.723-3.64 1.136 1.11-3.268 5.58zm4.889-6.535l-3.375-3.3a.99.99 0 0 1-.301-.713 1.02 1.02 0 0 1 1.03-1.008c.271 0 .537.108.729.295l1.917 1.875 1.917-1.875c.192-.187.457-.294.729-.294.567 0 1.03.452 1.03 1.007a.99.99 0 0 1-.302.713l-3.374 3.3zm1.737.844l1.02-.998 3.722 3.64c.058.056.127.098.188.15l-1.676 2.733-3.254-5.525zm4.303 7.307l2.167-3.532 2.191 3.72-2.167 3.532-2.19-3.72zm12.364 13.782a1.786 1.786 0 0 1-.674 2.465c-.425.24-.92.302-1.392.18a1.9 1.9 0 0 1-.42-.172l2.011-3.278.475.805zm-1.525-2.588L43.2 52.402l-2.191-3.72 2.166-3.532 2.191 3.72zm-5.431-9.222l2.19 3.72L39.96 46.9l-2.19-3.72 2.166-3.532zm-3.668-18.785a2.99 2.99 0 0 1 2.106-.852c1.644 0 2.98 1.307 2.98 2.914 0 .779-.31 1.51-.872 2.06l-1.348 1.317 1.347 1.316c.563.55.873 1.283.873 2.06 0 1.608-1.337 2.915-2.98 2.915a2.99 2.99 0 0 1-2.107-.853l-3.723-3.64.618-.604c.058-.057.102-.123.154-.184.97.322 3.26 1.241 4.516 3.083l1.53-.997c-1.53-2.245-4.138-3.345-5.373-3.762.003-.041.013-.082.013-.124 0-.01-.003-.02-.004-.032.983-.72 2.909-1.874 4.599-1.874v-1.798c-2.062 0-4.104 1.144-5.262 1.927l-.002-.002 2.935-2.87zm.257-6.872l-2.156-3.516 2.041-3.483c.047-.081.103-.155.153-.234l2.148 3.502-2.186 3.73zm3.244-5.501l-2.014-3.283a9.9 9.9 0 0 1 3.104-2.232l1.91 3.113a6.309 6.309 0 0 0-3 2.402zm6.503-2.736a6.476 6.476 0 0 0-1.62-.09L42.62 2.35a10.109 10.109 0 0 1 5.63.181L46.27 5.754zm2.045.739c-.088-.05-.18-.092-.271-.139l1.896-3.09c.064.035.131.063.195.1a9.942 9.942 0 0 1 3.066 2.713l-3.165 1.857a6.319 6.319 0 0 0-1.72-1.441zm3.214 14.322a1.808 1.808 0 0 1-1.111.84c-.47.123-.956.057-1.375-.18a1.796 1.796 0 0 1-.67-2.47l.796-1.357 3.276 1.602-.916 1.565zm2.286-3.903l-.455.775-3.276-1.602.576-.984c.261-.445.453-.91.593-1.383h3.739a9.771 9.771 0 0 1-1.177 3.194zm-2.307-4.99a6.253 6.253 0 0 0-.52-2.45l3.16-1.854a9.878 9.878 0 0 1 1.005 4.304h-3.645z" fill="#000"/></svg>