<svg width="83" height="67" viewBox="0 0 83 67" fill="none" xmlns="http://www.w3.org/2000/svg"><path d="M15.572 14.244v.398c0 .825-.68 1.494-1.52 1.494s-1.52-.669-1.52-1.494v-.398c0-.825.68-1.494 1.52-1.494s1.52.669 1.52 1.494zM83 51.652c0 .545-.02 1.088-.058 1.615-.06.823-.79 1.442-1.625 1.383a1.528 1.528 0 0 1-.815-.303 1.526 1.526 0 0 1-.814.303 1.509 1.509 0 0 1-1.626-1.382 21.985 21.985 0 0 1-.058-1.615c0-2.373.36-4.492.978-5.801V27.409c0-.728-.322-1.383-.833-1.835-.027.47-.091.94-.193 1.41l-2.359 10.802c-.701 3.212-2.517 5.468-4.964 6.256l-.47 3.78v16.96c0 .825-.68 1.494-1.52 1.494h-6.938a1.53 1.53 0 0 1-1.207-.586 1.474 1.474 0 0 1-.261-1.298l1.163-4.236v-6.563a4.862 4.862 0 0 1-1.235-.935 13.066 13.066 0 0 1-7 .926l-.592 5.276h2.699l.292-2.472c.097-.82.85-1.408 1.686-1.311a1.5 1.5 0 0 1 1.334 1.657l-.446 3.765-.007.06-.52 4.395a1.511 1.511 0 0 1-1.51 1.322h-5.723c-.432 0-.844-.181-1.133-.498a1.477 1.477 0 0 1-.378-1.161l1.33-11.826a12.837 12.837 0 0 1-3.546-2.13 12.595 12.595 0 0 1-4.024-6.312h-3.369l-.431 3.474V64.78c0 .825-.681 1.494-1.52 1.494h-6.94a1.53 1.53 0 0 1-1.207-.585 1.474 1.474 0 0 1-.26-1.298l1.162-4.236v-6.563c-1.333-.708-2.298-2.026-2.483-3.513l-.712-5.73H25.33c-.397 0-.787-.032-1.168-.093l.034 5.633c.003.58.425 1.096 1.002 1.228a1.497 1.497 0 0 1 1.166 1.628l-.724 6.113h.806c.84 0 1.52.67 1.52 1.495 0 .825-.68 1.494-1.52 1.494h-1.16l-.17 1.439h.152c.84 0 1.52.669 1.52 1.494s-.68 1.494-1.52 1.494H23.41c-.433 0-.846-.182-1.135-.5a1.478 1.478 0 0 1-.375-1.167l.524-4.421.001-.015.789-6.665a4.228 4.228 0 0 1-2.057-3.6l-.041-6.887c-1.844-1.296-3.048-3.418-3.048-5.811v-5.075c0-.644-.044-1.242-.134-1.796a1.52 1.52 0 0 1-.026-.154c-.515-2.844-2.28-4.49-5.538-5.242-.462-.107-.985-.085-1.548 0l-.032.005c-.49.075-1.008.197-1.54.322-1.013.238-2.06.484-3.155.484-3.521 0-6.026-2.209-6.09-5.372-.061-3.07.51-4.233 3.06-6.218l5.369-4.179-.914-1.75c-1.616-3.095-1.556-6.27.136-7.228.833-.472 2.185-.444 3.25 1.188 1.576 2.41 4.248 3.099 7.077 3.828 1.013.26 2.06.53 3.028.886.326.12.674.237 1.038.357 2.739-.862 5.818-2.956 6.483-3.974 1.065-1.632 2.417-1.66 3.25-1.188 1.692.957 1.752 4.132.137 7.228l-1.57 3.008c-.16.306-.32.585-.491.864.306.145 1.053.389 2.736.51 1.646.117 3.53.076 5.044.042.621-.013 1.157-.025 1.614-.025H64.83c4.123 0 8.432 2 10.977 5.096a10.581 10.581 0 0 1 1.848 3.25c2.495.534 4.368 2.723 4.368 5.333v18.443c.617 1.309.978 3.427.978 5.8zM26.059 8.808c.726.376 1.412.824 1.997 1.375l1.157-2.217a8.045 8.045 0 0 0 .675-1.728c-.999.893-2.371 1.81-3.83 2.57zM7.943 22.5c-1.305-1.48-2.936-2.776-4.824-3.831-.085.412-.09.922-.075 1.652.036 1.801 1.6 2.442 3.05 2.442.568 0 1.191-.115 1.85-.263zm27.844 39.347h-3.04l-.395 1.439h3.435v-1.439zM42.932 38.4c0-6.75-5.585-12.24-12.45-12.24-3.678 0-7.094 1.555-9.467 4.29.062.537.093 1.1.093 1.685v5.075c0 2.29 1.894 4.152 4.223 4.152h2.882c.768 0 1.415.564 1.509 1.313l.875 7.044c.08.648.649 1.249 1.322 1.398a1.5 1.5 0 0 1 1.184 1.458v6.286h2.684V47.732c0-.06.004-.121.011-.181l.606-4.877c.093-.75.74-1.313 1.509-1.313h4.652c.244-.964.367-1.956.367-2.962zm9.305 23.45l-.162 1.438h2.673l.17-1.439h-2.68zM58.9 49.941l-.695-5.593H45.803c1.036 2.89 3.401 5.088 6.346 5.964.079.016.155.038.229.065.841.229 1.727.35 2.641.35a9.812 9.812 0 0 0 3.88-.787zm8.224 11.906h-3.04l-.395 1.439h3.435v-1.439zm7.237-32.641a12.75 12.75 0 0 1-5.345 1.167c-6.947 0-12.599-5.557-12.599-12.387 0-.424.022-.848.066-1.269H39.251c-.422 0-.943.012-1.546.025-1.831.04-4.11.09-6.082-.115-1.214-.128-4.439-.466-4.856-2.816-.319-1.801-2.347-2.615-5.186-3.549a1.563 1.563 0 0 1-.083-.027l-.014-.005c-.537-.176-1.044-.342-1.538-.524-.823-.302-1.752-.54-2.735-.794-2.576-.664-5.436-1.4-7.602-3.553.13.45.328.958.615 1.51l1.485 2.842c.33.635.16 1.411-.41 1.854l-6.166 4.8c2.51 1.486 4.616 3.364 6.189 5.525a6.336 6.336 0 0 1 1.743.141c3.444.796 5.792 2.494 7.025 5.068 2.825-2.523 6.49-3.93 10.392-3.93 8.541 0 15.49 6.831 15.49 15.23 0 1-.098 1.99-.293 2.96H59.55c.769 0 1.416.564 1.51 1.314l.875 7.044c.08.648.648 1.249 1.321 1.398a1.5 1.5 0 0 1 1.184 1.458v6.285h2.684V47.732c0-.061.004-.121.011-.182l.61-4.913a1.508 1.508 0 0 1 1.326-1.302c2.518-.301 3.357-3.273 3.554-4.176l1.736-7.952zm.764-3.992a5.957 5.957 0 0 0-.155-1.526c-.287-1.233-.922-2.247-1.529-2.984-1.99-2.422-5.371-3.987-8.612-3.987h-5.285c-.058.42-.087.844-.087 1.27 0 5.181 4.288 9.397 9.559 9.397a9.618 9.618 0 0 0 6.109-2.17z" fill="#000"/></svg>