<svg width="64" height="85" viewBox="0 0 64 85" fill="none" xmlns="http://www.w3.org/2000/svg"><path d="M10.5 46.248c1.933 0 3.5-1.752 3.5-3.913 0-2.16-1.567-3.912-3.5-3.912S7 40.174 7 42.335s1.567 3.913 3.5 3.913zM32 46.248c2.21 0 4-1.752 4-3.913 0-2.16-1.79-3.912-4-3.912s-4 1.751-4 3.912 1.79 3.913 4 3.913zM53.5 46.248c1.933 0 3.5-1.752 3.5-3.913 0-2.16-1.567-3.912-3.5-3.912S50 40.174 50 42.335s1.567 3.913 3.5 3.913z" fill="#000"/><path d="M32 .276c-18.165 0-32 35.05-32 52.59C0 70.25 14.356 84.395 32 84.395s32-14.145 32-31.53C64 35.326 50.165.276 32 .276zM12.23 21.638C18.15 10.264 25.355 3.74 32 3.74s13.85 6.523 19.77 17.898c.05.093.092.195.14.289-1.188.388-2.133.901-2.974 1.39-1.44.834-2.578 1.493-5.057 1.493-2.47 0-3.59-.662-5.01-1.502-1.586-.938-3.383-2.003-6.838-2.003-3.454 0-5.251 1.065-6.838 2.003-1.419.838-2.54 1.503-5.01 1.503-2.487 0-3.627-.661-5.072-1.496-.852-.493-1.809-1.01-3.016-1.4.046-.09.087-.187.134-.277zM32 80.848c-12.012 0-22.286-7.385-26.45-17.78.796.17 1.663.297 2.726.297 3.453 0 5.252-1.064 6.837-2.002 1.418-.84 2.54-1.503 5.009-1.503 2.468 0 3.59.662 5.008 1.503 1.587.937 3.384 2.002 6.839 2.002 3.455 0 5.252-1.064 6.838-2.002 1.419-.839 2.54-1.503 5.01-1.503 2.477 0 3.6.664 5.022 1.503 1.588.94 3.389 2.002 6.849 2.002 1.079 0 1.957-.13 2.764-.306C54.293 73.46 44.017 80.85 32 80.85zM55.688 59.86c-2.476 0-3.6-.664-5.023-1.504-1.588-.938-3.389-2-6.847-2-3.455 0-5.254 1.064-6.84 2.002-1.419.84-2.54 1.502-5.01 1.502-2.468 0-3.59-.662-5.008-1.502-1.587-.938-3.384-2.003-6.838-2.003-3.455 0-5.252 1.065-6.839 2.003-1.418.84-2.538 1.502-5.007 1.502-1.87 0-2.978-.403-4.029-.964a27.565 27.565 0 0 1-.691-6.071c0-7.709 2.753-18.44 6.998-27.727 1.082.27 1.876.729 2.759 1.24 1.6.927 3.416 1.978 6.87 1.978s5.253-1.065 6.84-2.003c1.418-.84 2.54-1.502 5.009-1.502 2.468 0 3.59.662 5.008 1.502 1.587.938 3.384 2.003 6.839 2.003 3.448 0 5.26-1.051 6.859-1.979.87-.505 1.654-.957 2.714-1.228 4.241 9.285 6.992 20.01 6.992 27.716 0 2.082-.249 4.104-.688 6.058-1.066.569-2.184.977-4.069.977z" fill="#000"/></svg>