<svg width="50" height="58" viewBox="0 0 50 58" fill="none" xmlns="http://www.w3.org/2000/svg"><path d="M50 16.942l-2.842-7.984c-.94-2.641-3.808-4.008-6.391-3.047L35.54 7.856l.025-.157c.342-2.464-.667-4.842-2.7-6.362C30.947-.1 28.487-.399 26.29.538c-2.198.938-3.72 2.934-4.072 5.333l-.746 4.923-3.861-3.49c-1.784-1.611-4.206-2.14-6.478-1.414C6.129 7.488 4.76 14.04 8.639 17.6c.07.065.141.126.213.187l-5.57 2.072c-2.589.964-3.922 3.886-2.98 6.534l2.843 7.983 3.54-1.309v19.836c0 2.81 2.214 5.097 4.964 5.097H44.89c2.75 0 4.986-2.287 4.986-5.097V27.188H22.462L50 16.942zm-8.096-7.837c.86-.32 1.817.135 2.13 1.015l1.706 4.79-15.619 5.812-2.274-6.387 14.057-5.23zm-16.4-2.722a3.457 3.457 0 0 1 2.064-2.708 3.332 3.332 0 0 1 3.336.405c2.233 1.67 1.698 4.87-.85 5.817-.426.16-3.21 1.195-3.344 1.245l-2.044.76.837-5.52zm-.78 9.115l2.273 6.386-3.123 1.163L21.6 16.66l3.123-1.162zm-12.6-6.365a3.338 3.338 0 0 1 3.284.718l4.308 3.893-5.404 2.01c-1.206.45-2.497.194-3.452-.683-2-1.834-1.238-5.139 1.263-5.938zM5.131 30.021l-1.706-4.79c-.314-.883.13-1.857.993-2.179l14.057-5.23 2.274 6.387L5.132 30.02zm28.123.566h13.32v22.316c0 .936-.769 1.699-1.685 1.699H33.255V30.587zm-6.648 0h3.346v24.015h-3.346V30.587zm-3.302 0v24.015H11.648c-.916 0-1.662-.763-1.662-1.7V31.83l3.343-1.243h9.976z" fill="#000"/></svg>