<svg width="76" height="55" viewBox="0 0 76 55" fill="none" xmlns="http://www.w3.org/2000/svg"><path d="M74.733 12.5h-3.8v-1.875c0-2.416-1.985-4.375-4.433-4.375a4.435 4.435 0 0 0-1.9.439V5c0-2.761-2.268-5-5.067-5-2.798 0-5.066 2.239-5.066 5v7.5H49.4v-1.25c.01-2.062-1.677-3.741-3.767-3.75a3.81 3.81 0 0 0-2.566.975 3.779 3.779 0 0 0-5.067 0 3.779 3.779 0 0 0-5.067 0 3.819 3.819 0 0 0-5.345.242 3.707 3.707 0 0 0-.988 2.533v1.25h-5.067V5c0-2.761-2.268-5-5.066-5C13.668 0 11.4 2.239 11.4 5v1.689a4.435 4.435 0 0 0-1.9-.439c-2.448 0-4.433 1.959-4.433 4.375V12.5h-3.8c-.7 0-1.267.56-1.267 1.25v7.5c0 .69.567 1.25 1.267 1.25h3.8v1.875c0 2.416 1.985 4.375 4.433 4.375a4.436 4.436 0 0 0 1.9-.439V30c0 2.761 2.268 5 5.067 5 2.798 0 5.066-2.239 5.066-5v-7.5h2.534v4.179a6.169 6.169 0 0 0 1.855 4.419l3.211 3.17V55h2.534V33.75c0-.332-.134-.65-.372-.884l-3.582-3.536a3.745 3.745 0 0 1-1.113-2.651V18.75h7.419c.48-.006.934.21 1.226.586l.028.039a1.128 1.128 0 0 1 .175.51 1.06 1.06 0 0 1 0 .236 1.01 1.01 0 0 1-.017.125 1.297 1.297 0 0 1-.145.375c-.221.387-.636.627-1.086.629h-3.8c-.7 0-1.267.56-1.267 1.25V25c0 .538.35 1.016.867 1.186l2.786.919c2.263.741 3.947 4.12 3.947 6.645h2.534c0-3.439-2.169-7.865-5.674-9.017l-1.926-.634v-.349H34.2a3.8 3.8 0 0 0 2.787-1.25h11.146v4.584a3.739 3.739 0 0 1-.76 2.25L44.587 33c-.165.216-.254.48-.254.75V55h2.534V34.166l2.533-3.332a6.232 6.232 0 0 0 1.267-3.75V22.5h3.8V30c0 2.761 2.268 5 5.066 5 2.799 0 5.067-2.239 5.067-5v-1.689a4.436 4.436 0 0 0 1.9.439c2.448 0 4.433-1.959 4.433-4.375V22.5h3.8c.7 0 1.267-.56 1.267-1.25v-7.5c0-.69-.567-1.25-1.267-1.25zM5.067 20H2.533v-5h2.534v5zm6.333 4.375c0 1.035-.85 1.875-1.9 1.875-1.05 0-1.9-.84-1.9-1.875v-13.75c0-1.035.85-1.875 1.9-1.875 1.05 0 1.9.84 1.9 1.875v13.75zM19 30c0 1.38-1.134 2.5-2.533 2.5-1.4 0-2.534-1.12-2.534-2.5V5c0-1.38 1.135-2.5 2.534-2.5C17.866 2.5 19 3.62 19 5v25zm6.333-13.75c-.7 0-1.266.56-1.266 1.25V20h-2.534v-5H26.6c.001.236.025.472.072.704.014.073.038.141.056.212.03.111.05.226.089.334h-1.484zM31.667 15c0 .69-.568 1.25-1.267 1.25-.7 0-1.267-.56-1.267-1.25v-3.75c0-.69.568-1.25 1.267-1.25.7 0 1.267.56 1.267 1.25V15zm5.066 0c0 .69-.567 1.25-1.266 1.25-.7 0-1.267-.56-1.267-1.25v-3.75c0-.69.567-1.25 1.267-1.25s1.266.56 1.266 1.25V15zm7.6-3.75c0-.69.568-1.25 1.267-1.25.7 0 1.267.56 1.267 1.25V15c0 .69-.567 1.25-1.267 1.25s-1.267-.56-1.267-1.25v-3.75zm-5.066 0c0-.69.567-1.25 1.266-1.25.7 0 1.267.56 1.267 1.25V15c0 .69-.567 1.25-1.267 1.25s-1.266-.56-1.266-1.25v-3.75zm15.2 8.75H38v-.035a3.681 3.681 0 0 0-.078-.74c-.008-.034-.025-.065-.032-.1-.023-.091-.056-.176-.085-.265a3.588 3.588 0 0 0-.194-.468c-.037-.075-.054-.16-.096-.232a.574.574 0 0 0 .042-.031c.058-.038.109-.083.164-.125.095-.07.195-.135.284-.214.073.065.158.116.237.175.079.059.156.125.24.177.12.073.244.14.37.2.087.04.168.09.254.124.148.056.3.103.453.139.08.021.155.051.237.067.487.099.99.099 1.477 0 .082-.016.157-.046.237-.067.154-.036.306-.083.453-.139.09-.036.171-.085.254-.125.127-.06.25-.126.37-.199.084-.055.16-.117.24-.177.08-.06.164-.11.237-.175.074.065.158.116.237.175.078.059.156.125.24.177.12.073.244.14.37.2.087.04.168.09.254.124.148.056.3.103.453.139.08.021.155.051.237.067 2.051.412 4.052-.895 4.469-2.92.051-.247.077-.5.076-.752h5.067v5zm7.6 10c0 1.38-1.135 2.5-2.534 2.5C58.134 32.5 57 31.38 57 30V5c0-1.38 1.134-2.5 2.533-2.5 1.4 0 2.534 1.12 2.534 2.5v25zm6.333-5.625c0 1.035-.85 1.875-1.9 1.875-1.05 0-1.9-.84-1.9-1.875v-13.75c0-1.035.85-1.875 1.9-1.875 1.05 0 1.9.84 1.9 1.875v13.75zM73.467 20h-2.534v-5h2.534v5z" fill="#000"/></svg>