<svg width="67" height="77" viewBox="0 0 67 77" fill="none" xmlns="http://www.w3.org/2000/svg"><path d="M23.16 47.15c-1.017 0-1.84.87-1.84 1.944v8.813l-7.001-9.97c-.473-.674-1.302-.951-2.056-.688S11 48.256 11 49.094v13.622c0 1.073.824 1.943 1.84 1.943 1.017 0 1.84-.87 1.84-1.943v-7.738l7.001 9.97a1.81 1.81 0 0 0 1.479.787c.192 0 .387-.032.577-.098C24.49 65.374 25 64.63 25 63.79V49.094c0-1.073-.824-1.943-1.84-1.943zM54.179 47.15a1.834 1.834 0 0 0-1.822 1.846v5.737l-1.133-2.093a1.808 1.808 0 1 0-3.173-.037l-1.408 2.462v-6.069c0-1.02-.816-1.845-1.822-1.845A1.834 1.834 0 0 0 43 48.996v12.937c0 .835.553 1.566 1.349 1.782a1.811 1.811 0 0 0 2.049-.857l3.186-5.573 2.998 5.536a1.818 1.818 0 0 0 2.049.9A1.842 1.842 0 0 0 56 61.933V48.996a1.833 1.833 0 0 0-1.821-1.845zM38.054 50.842c1.075 0 1.946-.826 1.946-1.846s-.871-1.845-1.946-1.845h-8.108c-1.075 0-1.946.826-1.946 1.845v12.937c0 1.02.871 1.846 1.946 1.846h8.108c1.075 0 1.946-.827 1.946-1.846 0-1.02-.871-1.846-1.946-1.846h-6.162V57.31h6.162c1.075 0 1.946-.826 1.946-1.845 0-1.02-.871-1.846-1.946-1.846h-6.162v-2.777h6.162z" fill="#000"/><path d="M60.794 35.84L35.05.975A1.928 1.928 0 0 0 33.5.2c-.615 0-1.192.289-1.552.775L6.206 35.84C2.644 36.717 0 39.867 0 43.61v24.872c0 4.418 3.685 8.013 8.215 8.013h50.57c4.53 0 8.215-3.595 8.215-8.013V43.61c0-3.742-2.645-6.892-6.206-7.769zM33.5 5.257l22.402 30.34H11.098L33.5 5.257zm29.676 63.225c0 2.362-1.97 4.282-4.39 4.282H8.213c-2.42 0-4.39-1.92-4.39-4.282V43.61c0-2.361 1.97-4.282 4.39-4.282h50.571c2.421 0 4.39 1.92 4.39 4.282v24.873z" fill="#000"/><path d="M7.5 41.282c-.394 0-.782.155-1.06.43-.281.272-.44.65-.44 1.037 0 .386.159.763.44 1.038.278.272.666.43 1.06.43s.78-.158 1.06-.43c.28-.275.44-.652.44-1.038 0-.388-.16-.765-.44-1.038a1.526 1.526 0 0 0-1.06-.43zM59.5 41.282c-.394 0-.782.155-1.06.43a1.46 1.46 0 0 0-.44 1.037c0 .386.16.763.44 1.038.28.272.666.43 1.06.43a1.53 1.53 0 0 0 1.06-.43c.281-.275.44-.652.44-1.038 0-.388-.159-.765-.44-1.038a1.52 1.52 0 0 0-1.06-.43z" fill="#000"/></svg>