<svg width="60" height="57" viewBox="0 0 60 57" fill="none" xmlns="http://www.w3.org/2000/svg"><path d="M27.533 38.686a7.506 7.506 0 0 0-1.814-1.26 7.68 7.68 0 0 0 1.706-1.82 4.07 4.07 0 0 0 .589-2.29 4.235 4.235 0 0 0-1.61-3.356 5.745 5.745 0 0 0-1.899-.996 8.028 8.028 0 0 0-2.403-.344 8.64 8.64 0 0 0-2.751.412 6.405 6.405 0 0 0-2.055 1.088 5.25 5.25 0 0 0-1.201 1.432c-.27.434-.419.927-.433 1.431-.026.427.14.843.457 1.146.262.265.626.418 1.009.423.281.004.56-.05.817-.16a.939.939 0 0 0 .42-.401c.153-.336.325-.695.517-1.076.158-.336.36-.652.6-.94a2.21 2.21 0 0 1 .854-.584 3.64 3.64 0 0 1 1.37-.217 2.641 2.641 0 0 1 1.958.721c.473.462.733 1.085.721 1.73a2.4 2.4 0 0 1-.913 2.015 3.435 3.435 0 0 1-2.163.699h-.565a2.342 2.342 0 0 0-1.465.389 1.215 1.215 0 0 0-.493 1.008c-.023.373.127.736.409.996.335.264.767.392 1.201.355H21.982a3.31 3.31 0 0 1 2.403.87c.615.655.931 1.516.877 2.394a3.226 3.226 0 0 1-.517 1.809c-.645.92-1.734 1.467-2.895 1.454a2.957 2.957 0 0 1-2.283-.881 8.65 8.65 0 0 1-1.574-2.726c-.09-.218-.255-.4-.469-.515a1.405 1.405 0 0 0-.733-.218 1.842 1.842 0 0 0-1.273.458A1.555 1.555 0 0 0 15 42.946c.035.52.182 1.026.433 1.489.31.66.737 1.264 1.261 1.786a6.788 6.788 0 0 0 2.14 1.397 7.353 7.353 0 0 0 2.943.561c1.002.025 2-.126 2.944-.446a7.046 7.046 0 0 0 2.306-1.351 5.862 5.862 0 0 0 1.466-1.97 5.495 5.495 0 0 0 .505-2.29 4.562 4.562 0 0 0-1.466-3.436zM41.557 29.167a1.454 1.454 0 0 0-1.214-.54 1.267 1.267 0 0 0-.886.23c-.154.16-.49.578-1.007 1.25a10.95 10.95 0 0 1-1.773 1.835 11.77 11.77 0 0 1-2.67 1.56c-.547.226-1.071.498-1.566.814a1.118 1.118 0 0 0-.437.975c0 .38.162.744.449 1.01.267.285.652.449 1.056.446.81 0 2.383-.848 4.722-2.546v11.87a2.209 2.209 0 0 0 .522 1.571c.343.359.836.556 1.347.54 1.263 0 1.894-.876 1.894-2.627V30.646a2.202 2.202 0 0 0-.437-1.48z" fill="#000"/><path d="M55.392 9.095a11.47 11.47 0 0 0-4.916-1.15v-3.53c0-2.299-2.298-4.161-5.13-4.161-2.83 0-5.129 1.862-5.129 4.162v3.45H19.795v-3.45c0-2.3-2.299-4.162-5.13-4.162-2.83 0-5.129 1.862-5.129 4.162v3.53a11.449 11.449 0 0 0-4.928 1.15C2.5 10.175 0 12.543 0 17.545V47.38c0 5.013 2.511 7.359 4.608 8.45a11.55 11.55 0 0 0 5.33 1.15h40.123a11.55 11.55 0 0 0 5.33-1.15c2.11-1.08 4.609-3.448 4.609-8.45V17.57c0-5.024-2.5-7.324-4.608-8.474zm-12.794-4.68c0-1.01 1.256-1.862 2.76-1.862 1.505 0 2.76.851 2.76 1.863v9.278c0 1.012-1.267 1.863-2.76 1.863-1.492 0-2.76-.828-2.76-1.863V4.416zm-30.68 0c0-1.01 1.267-1.862 2.76-1.862 1.492 0 2.76.851 2.76 1.863v9.278c0 1.012-1.268 1.863-2.76 1.863-1.493 0-2.773-.828-2.773-1.863l.012-9.278zM57.63 47.382c0 3.116-1.185 5.266-3.353 6.416a9.132 9.132 0 0 1-4.217.931H9.951a9.131 9.131 0 0 1-4.218-.931c-2.227-1.15-3.352-3.311-3.352-6.416V23.87h55.25v23.512zm0-25.811H2.38v-4.001c0-3.116 1.185-5.266 3.352-6.416a9.128 9.128 0 0 1 3.803-.908v3.45c0 2.299 2.298 4.161 5.13 4.161 2.83 0 5.129-1.862 5.129-4.162v-3.449h20.434v3.45c0 2.299 2.298 4.161 5.13 4.161 2.83 0 5.117-1.862 5.117-4.162v-3.449a9.116 9.116 0 0 1 3.802.908c2.227 1.15 3.353 3.311 3.353 6.416v4z" fill="#000"/></svg>