<svg width="64" height="45" viewBox="0 0 64 45" fill="none" xmlns="http://www.w3.org/2000/svg"><path d="M9.375 0c-4.136 0-7.5 3.365-7.5 7.5 0 4.136 3.364 7.5 7.5 7.5s7.5-3.364 7.5-7.5S13.511 0 9.375 0zm0 11.25a3.754 3.754 0 0 1-3.75-3.75 3.754 3.754 0 0 1 3.75-3.75 3.754 3.754 0 0 1 3.75 3.75 3.754 3.754 0 0 1-3.75 3.75zM54.625 0c-4.136 0-7.5 3.365-7.5 7.5 0 4.136 3.364 7.5 7.5 7.5s7.5-3.364 7.5-7.5-3.364-7.5-7.5-7.5zm0 11.25a3.754 3.754 0 0 1-3.75-3.75 3.754 3.754 0 0 1 3.75-3.75 3.754 3.754 0 0 1 3.75 3.75 3.754 3.754 0 0 1-3.75 3.75z" fill="#000"/><path d="M55.279 15h-6.623a5.608 5.608 0 0 1-3.12-.945l-4.453-2.905a5.62 5.62 0 0 0-.653-4.896c-1.725-2.585-5.215-3.29-7.798-1.56l-.635.419-.621-.414a5.565 5.565 0 0 0-4.213-.845 5.623 5.623 0 0 0-4.256 7.265l-4.443 2.936a5.608 5.608 0 0 1-3.12.945H8.722C3.912 15 0 18.913 0 23.721V45h18.75V27.389l13.234-8.77 13.266 8.77V45H64V23.721C64 18.913 60.087 15 55.279 15zM27.89 7.533c.163-.033.327-.041.49-.03l-1.9 1.255a1.872 1.872 0 0 1 1.41-1.225zM15 25.375V41.25H3.75V23.721a4.977 4.977 0 0 1 4.972-4.971h6.622a9.34 9.34 0 0 0 5.194-1.57l14.165-9.36.013-.009a1.87 1.87 0 0 1 2.594.524c.579.87.333 2.032-.516 2.597L15 25.375zM60.25 41.25H49V25.374l-13.62-9.005 3.392-2.25 4.692 3.062a9.346 9.346 0 0 0 5.192 1.569h6.622a4.977 4.977 0 0 1 4.972 4.971V41.25z" fill="#000"/></svg>