<svg width="43" height="60" viewBox="0 0 43 60" fill="none" xmlns="http://www.w3.org/2000/svg"><path d="M8.5 33.467c-.828 0-1.5.438-1.5.978s.672.978 1.5.978 1.5-.439 1.5-.978c0-.54-.672-.978-1.5-.978zM8.5 37.379c-.828 0-1.5.54-1.5 1.206v15.194c0 .666.672 1.206 1.5 1.206s1.5-.54 1.5-1.206V38.585c0-.666-.672-1.206-1.5-1.206z" fill="#000"/><path d="M41.528 1.086a1.175 1.175 0 0 0-.752-.808 1.213 1.213 0 0 0-1.104.157c-1.19.852-7.175 5.237-8.15 7.857a5.702 5.702 0 0 0 .33 4.707c-1.46 2.05-2.972 4.88-4.303 7.644V1.375c0-.643-.533-1.165-1.19-1.165h-9.527c-.658 0-1.19.522-1.19 1.165v22.841h-.215l-2.034-7.743-.003-.012-1.849-6.753a1.172 1.172 0 0 0-.039-.115l-.014-.034a1.129 1.129 0 0 0-.037-.078l-.02-.036a1.12 1.12 0 0 0-.118-.171l-.014-.019-7.066-8.148A1.207 1.207 0 0 0 3.025.733c-.442.113-.78.463-.868.902L.022 12.195l-.004.024c-.005.03-.01.06-.013.091l-.003.04a1.18 1.18 0 0 0 .007.216l.005.036c.006.04.015.081.026.122l1.847 6.746 1.239 4.797a3.573 3.573 0 0 0-1.919.973 3.436 3.436 0 0 0-1.046 2.472c0 1.52.995 2.815 2.381 3.296v23.041c0 3.213 2.671 5.827 5.954 5.827h23.816c3.283 0 5.954-2.614 5.954-5.827V31.01c.496-.17.952-.45 1.335-.825a3.436 3.436 0 0 0 1.047-2.472c0-1.703-1.251-3.124-2.9-3.433.776-3.088 1.324-6.158 1.526-8.566a5.856 5.856 0 0 0 3.438-3.436c.977-2.625-.815-9.783-1.184-11.191zm-8.092 13.779a6.07 6.07 0 0 0 3.41 1.242c-.239 2.323-.786 5.216-1.538 8.11h-6.807c1.819-4.033 3.498-7.215 4.935-9.352zM18.023 2.54h7.144v2.68h-2.381c-.658 0-1.191.522-1.191 1.165 0 .644.533 1.166 1.19 1.166h2.382v2.33h-2.381c-.658 0-1.191.522-1.191 1.166 0 .643.533 1.165 1.19 1.165h2.382v2.33h-2.381c-.658 0-1.191.523-1.191 1.166 0 .644.533 1.166 1.19 1.166h2.382v2.33h-2.381c-.658 0-1.191.522-1.191 1.166 0 .643.533 1.165 1.19 1.165h2.382v2.68h-7.144V2.541zM4.013 4.457L8.9 10.091a5.514 5.514 0 0 1-2.907 1.864 5.615 5.615 0 0 1-3.456-.188l1.478-7.31zM2.94 14.31a7.985 7.985 0 0 0 1.605.164c.689 0 1.382-.089 2.065-.268a7.945 7.945 0 0 0 3.23-1.707l1.25 4.56 1.88 7.157h-7.4L4.193 18.89a.35.35 0 0 0-.004-.015l-1.25-4.565zm32.945 39.74c0 1.927-1.602 3.495-3.572 3.495H8.496c-1.97 0-3.572-1.568-3.572-3.496V31.21h30.96v22.84zm2.382-26.338c0 .311-.124.604-.349.824-.225.22-.524.342-.842.342H3.733c-.656 0-1.19-.523-1.19-1.166 0-.31.123-.603.348-.823.226-.22.525-.342.842-.342h33.343c.656 0 1.19.523 1.19 1.165zm2.208-16.232a3.536 3.536 0 0 1-2.592 2.219c-.66.144-1.346.1-1.987-.129a3.548 3.548 0 0 1-1.653-1.21 3.43 3.43 0 0 1-.482-3.27c.446-1.2 3.35-3.758 5.879-5.703.695 3.093 1.28 6.896.835 8.093z" fill="#000"/></svg>