<svg width="71" height="83" viewBox="0 0 71 83" fill="none" xmlns="http://www.w3.org/2000/svg"><path d="M42 41.352V3.593C42 1.612 40.369 0 38.364 0H19.62c-2.005 0-3.637 1.612-3.637 3.593v32.435L3.81 48.058C1.353 50.484 0 53.712 0 57.145c0 3.434 1.353 6.661 3.81 9.089A13.003 13.003 0 0 0 13.008 70c3.474 0 6.741-1.337 9.198-3.765L38.19 50.44c2.457-2.428 3.81-5.655 3.81-9.089zM30.543 54.609c-5.939-7.027-2.95-17.857 5.882-20.883.63-.215.967-.899.749-1.523a1.218 1.218 0 0 0-1.542-.74c-4.671 1.598-8.291 5.279-9.811 9.84a15.41 15.41 0 0 0 3.003 15.005l-8.332 8.233a10.579 10.579 0 0 1-7.484 3.064 10.578 10.578 0 0 1-7.484-3.064 10.328 10.328 0 0 1-3.1-7.395c0-1.04.153-2.056.447-3.024 5.619.606 10.423 4.293 12.392 9.594.221.596.899.946 1.554.712.625-.227.953-.912.72-1.537-2.13-5.736-7.284-10.084-13.651-11.053.449-.752.997-1.453 1.638-2.087l11.92-11.78 1.095.521a1.218 1.218 0 0 0 1.617-.56 1.192 1.192 0 0 0-.567-1.599l-1.181-.561V3.593c0-.66.543-1.198 1.212-1.198h1.082v7.743c0 .662.542 1.198 1.212 1.198.67 0 1.212-.536 1.212-1.198V2.395h2.295v7.743c0 .662.542 1.198 1.212 1.198.669 0 1.212-.536 1.212-1.198V2.395h2.294v7.743c0 .662.542 1.198 1.212 1.198.669 0 1.212-.536 1.212-1.198V2.395h2.294v7.743c0 .662.542 1.198 1.212 1.198.67 0 1.212-.536 1.212-1.198V2.395h1.082c.669 0 1.212.537 1.212 1.198v37.759c0 2.794-1.1 5.42-3.1 7.396l-5.932 5.861z" fill="#000"/><path d="M67.277 13H48.084c-2.053 0-3.724 1.612-3.724 3.593v32.436L31.896 61.057c-5.193 5.012-5.193 13.166 0 18.178C34.411 81.663 37.756 83 41.313 83c3.558 0 6.903-1.337 9.42-3.764l16.366-15.794C69.615 61.014 71 57.786 71 54.352V16.594C71 14.612 69.33 13 67.277 13zm1.24 41.353c0 2.793-1.127 5.42-3.173 7.395l-6.075 5.862c-6.071-7.014-3.037-17.855 6.023-20.882.657-.22.99-.908.767-1.523-.221-.618-.921-.958-1.58-.741-4.684 1.564-8.455 5.18-10.045 9.838-1.726 5.052-.695 10.772 3.075 15.006l-8.532 8.233c-2.047 1.976-4.768 3.064-7.664 3.064-2.894 0-5.616-1.088-7.663-3.064-2.917-2.815-3.82-6.848-2.708-10.418 5.749.608 10.667 4.294 12.68 9.593.179.47.647.786 1.165.786.146 0 .29-.026.427-.074.642-.228.973-.916.738-1.537a16.97 16.97 0 0 0-2.457-4.37 17.563 17.563 0 0 0-3.615-3.483 18.036 18.036 0 0 0-7.907-3.199 10.496 10.496 0 0 1 1.677-2.088l12.207-11.78 1.12.521c.618.287 1.36.036 1.656-.56.298-.596.038-1.312-.58-1.599l-1.21-.561V16.593c0-.66.556-1.198 1.24-1.198h1.109v7.743c0 .662.556 1.198 1.24 1.198.687 0 1.242-.536 1.242-1.198v-7.743h2.35v7.743c0 .662.555 1.198 1.24 1.198.686 0 1.241-.536 1.241-1.198v-7.743h2.35v7.743c0 .662.555 1.198 1.241 1.198.685 0 1.241-.536 1.241-1.198v-7.743h2.35v7.743c0 .662.555 1.198 1.24 1.198.686 0 1.242-.536 1.242-1.198v-7.743h1.108c.684 0 1.24.537 1.24 1.198v37.76z" fill="#000"/></svg>