<svg width="67" height="67" viewBox="0 0 67 67" fill="none" xmlns="http://www.w3.org/2000/svg"><path d="M28.232 24.107l-5.233 13.752-5.234-13.752H14l7.121 18.264.127.32h3.501l7-17.937.251-.647h-3.768zM37 24.107h-4V42.69h4V24.107zM52.374 27.257a5.276 5.276 0 0 0-1.706-1.78c-.708-.461-1.55-.81-2.502-1.038a13.095 13.095 0 0 0-3.017-.332H40V42.69h3.695v-6.957h.794c1.174 0 2.286-.135 3.305-.4 1.03-.271 1.94-.665 2.702-1.173.777-.515 1.396-1.152 1.837-1.894A4.89 4.89 0 0 0 53 29.748c0-.938-.213-1.776-.626-2.49zM48.98 31c-.216.37-.53.694-.934.96-.417.274-.92.484-1.498.627a8.2 8.2 0 0 1-1.975.222h-.88V27.03h1.37c.608 0 1.193.055 1.74.164a4.2 4.2 0 0 1 1.348.487c.36.216.647.488.85.814.201.323.304.735.304 1.226 0 .481-.11.911-.325 1.28z" fill="#000"/><path d="M66.02 31.082l-7.85-7.677V12.547c0-1.81-1.5-3.277-3.35-3.277H43.72l-7.85-7.677A3.385 3.385 0 0 0 33.5.632c-.888 0-1.74.345-2.368.96l-7.849 7.677H12.181c-1.85 0-3.35 1.467-3.35 3.277v10.858L.98 31.08a3.226 3.226 0 0 0 0 4.635l7.85 7.677v10.858c0 1.81 1.5 3.277 3.35 3.277h11.101l7.85 7.677a3.38 3.38 0 0 0 2.368.961c.889 0 1.74-.345 2.368-.96l7.85-7.677h11.101c1.85 0 3.35-1.467 3.35-3.277V43.394l7.85-7.677a3.227 3.227 0 0 0 0-4.635zm-11.2 10.954v12.216H42.33L33.5 62.89l-8.83-8.638H12.18V42.036L3.35 33.4l8.83-8.637V12.546h12.49l8.83-8.637 8.83 8.637h12.49v12.216l8.83 8.637-8.83 8.637z" fill="#000"/><path d="M33.5 12.37c.828 0 1.5-.658 1.5-1.468 0-.81-.672-1.467-1.5-1.467s-1.5.657-1.5 1.467.672 1.467 1.5 1.467zM33.5 58.341c.828 0 1.5-.876 1.5-1.956s-.672-1.956-1.5-1.956-1.5.876-1.5 1.956.672 1.956 1.5 1.956zM16.5 18.238c.828 0 1.5-.657 1.5-1.467s-.672-1.467-1.5-1.467-1.5.657-1.5 1.467.672 1.467 1.5 1.467zM50.5 51.494c.828 0 1.5-.656 1.5-1.467 0-.81-.672-1.467-1.5-1.467s-1.5.657-1.5 1.467.672 1.467 1.5 1.467zM50.5 18.238c.828 0 1.5-.657 1.5-1.467s-.672-1.467-1.5-1.467-1.5.657-1.5 1.467.672 1.467 1.5 1.467zM16.5 51.494c.828 0 1.5-.656 1.5-1.467 0-.81-.672-1.467-1.5-1.467s-1.5.657-1.5 1.467.672 1.467 1.5 1.467zM57 34.866c1.105 0 2-.657 2-1.467s-.895-1.467-2-1.467-2 .657-2 1.467.895 1.467 2 1.467zM10 34.866c1.105 0 2-.657 2-1.467s-.895-1.467-2-1.467-2 .657-2 1.467.895 1.467 2 1.467z" fill="#000"/></svg>