<svg width="76" height="69" viewBox="0 0 76 69" fill="none" xmlns="http://www.w3.org/2000/svg"><path d="M49.875 9c-.82 0-1.484.672-1.484 1.5s.665 1.5 1.484 1.5c.82 0 1.484-.672 1.484-1.5S50.694 9 49.875 9z" fill="#000"/><path d="M64.746 34.078c-1.685-6.108-9.031-15.697-8.12-32.496A1.51 1.51 0 0 0 56.224.47c-.28-.3-.67-.469-1.078-.469h-34.29c-.407 0-.797.17-1.077.469-.28.299-.427.702-.405 1.113.908 16.722-6.416 26.409-8.13 32.483-3.098 10.952 1.957 25.096 9.04 34.353a1.48 1.48 0 0 0 1.174.582h33.088c.46 0 .893-.215 1.174-.582 6.741-8.808 12.02-23.532 9.027-34.34zm-46.274-9.452C21.255 17.503 22.574 10.235 22.4 3h31.2c-.174 7.232 1.145 14.498 3.927 21.622.118.302.241.607.369.915C51.789 28.46 44.94 30 38 30c-6.94 0-13.789-1.54-19.896-4.463.126-.305.25-.608.368-.911zM36.516 66H22.193c-7.646-10.328-9.928-22.049-8.466-29.552 8.039 3.118 15.654 9.838 22.789 15.298V66zM14.529 33.547c.5-1.398 1.123-2.7 1.82-4.152.175-.367.354-.74.535-1.124C23.374 31.37 30.64 33 38 33c7.36 0 14.626-1.631 21.116-4.728.18.381.358.754.533 1.119.697 1.454 1.32 2.758 1.815 4.158-8.484 3.227-16.48 10.2-23.464 15.57-7.014-5.393-14.984-12.346-23.47-15.572zM53.807 66H39.484V51.746c7.185-5.5 14.754-12.174 22.765-15.29 1.765 9.48-2.837 21.89-8.442 29.544z" fill="#000"/><path d="M53.504 22.19a60.646 60.646 0 0 1-1.621-6.031 1.484 1.484 0 0 0-1.764-1.15 1.5 1.5 0 0 0-1.138 1.781 63.743 63.743 0 0 0 1.701 6.335 1.48 1.48 0 0 0 1.873.958 1.503 1.503 0 0 0 .949-1.892zM74.516 12h-9.182l3.403-3.44c.58-.585.58-1.535 0-2.12a1.473 1.473 0 0 0-2.1 0l-5.937 6a1.511 1.511 0 0 0 0 2.12l5.938 6c.58.586 1.52.586 2.1 0 .579-.585.579-1.535 0-2.12L65.333 15h9.182c.82 0 1.484-.672 1.484-1.5 0-.829-.664-1.5-1.484-1.5zM15.3 12.44l-5.938-6a1.474 1.474 0 0 0-2.1 0 1.511 1.511 0 0 0 0 2.12L10.667 12H1.484C.664 12 0 12.672 0 13.5c0 .829.665 1.5 1.484 1.5h9.182l-3.403 3.44a1.511 1.511 0 0 0 0 2.12c.58.587 1.52.587 2.1 0l5.937-6c.58-.585.58-1.535 0-2.12z" fill="#000"/></svg>