<svg width="18" height="19" viewBox="0 0 18 19" fill="none" xmlns="http://www.w3.org/2000/svg"><path d="M18 9.5c0-.479-.319-.914-.874-1.195l-2.264-1.143 2.264-1.143c.555-.28.874-.716.874-1.195 0-.48-.319-.915-.874-1.195l-6.5-3.283C10.186.123 9.608 0 9 0S7.815.123 7.373.346L.874 3.63C.32 3.909 0 4.345 0 4.824c0 .479.319.914.874 1.195l2.264 1.143L.874 8.305C.32 8.585 0 9.021 0 9.5c0 .48.319.915.874 1.195l2.264 1.144-2.264 1.143c-.555.28-.874.716-.874 1.195 0 .479.319.915.874 1.195l6.5 3.283c.455.23 1.04.345 1.626.345.585 0 1.17-.115 1.627-.345l6.499-3.283c.555-.28.874-.716.874-1.195 0-.479-.319-.915-.874-1.195l-2.264-1.143 2.264-1.144c.555-.28.874-.716.874-1.195zM1.107 4.824c.02-.035.091-.114.26-.2l6.5-3.282c.287-.145.7-.229 1.133-.229.433 0 .846.084 1.134.23l6.499 3.281c.169.086.24.165.26.2-.02.034-.091.114-.26.199l-6.5 3.282c-.287.146-.7.23-1.133.23-.433 0-.846-.084-1.134-.23l-6.5-3.282c-.168-.085-.239-.165-.26-.2zm15.526 9.154c.169.085.24.164.26.2-.02.034-.091.113-.26.198l-6.5 3.283c-.603.305-1.663.305-2.267 0l-6.5-3.283c-.168-.085-.239-.164-.26-.199.021-.035.092-.114.26-.2l3.004-1.516 3.003 1.517c.456.23 1.042.345 1.627.345s1.17-.115 1.627-.345l3.003-1.517 3.003 1.517zm0-4.278l-6.5 3.282c-.603.305-1.663.305-2.267 0L1.366 9.7c-.168-.086-.239-.165-.26-.2.021-.034.092-.114.26-.199L4.37 7.784l3.003 1.517c.442.223 1.02.347 1.627.347s1.185-.123 1.627-.347l3.003-1.517 3.003 1.517c.169.085.24.165.26.2-.02.034-.091.113-.26.199z" fill="#0392CC"/></svg>