<svg id="Слой_1" xmlns="http://www.w3.org/2000/svg" viewBox="0 0 14 14"><style>.st0{fill:#fff}</style><path class="st0" d="M14 11c0 .2 0 .4-.2.6l-2 2-.3.3c-.2 0-.3.1-.5.1h-.1-.2c-.2 0-.5 0-.9-.1s-.9-.2-1.5-.5-1.3-.6-2.1-1.1-1.6-1.2-2.5-2.1C3 9.5 2.4 8.9 2 8.2c-.4-.6-.8-1.1-1-1.7-.3-.5-.5-1-.7-1.4C.2 4.7.1 4.3.1 4 0 3.7 0 3.4 0 3.2V3c0-.1.1-.3.1-.4.1-.1.2-.3.3-.3l2-2c.1-.2.3-.3.4-.3.2 0 .3 0 .4.1l.3.3 1.6 3c.1.2.1.3.1.5s-.1.3-.3.5l-.8.7s0 .1-.1.1v.1c0 .2.1.4.3.7.1.2.3.5.5.9.2.3.6.7 1.1 1.2.4.5.8.8 1.2 1.1.3.2.6.4.9.5.2.1.4.2.5.2H8.8s.1 0 .1-.1l.8-.8c.2-.2.4-.2.6-.2.2 0 .3 0 .4.1l2.9 1.7c.2.1.4.3.4.4z"/></svg>