<svg width="21" height="21" viewBox="0 0 21 21" fill="none" xmlns="http://www.w3.org/2000/svg"><path d="M20.533 18.249l-4.329-4.329c1.044-1.505 1.566-3.184 1.566-5.035a8.728 8.728 0 0 0-.701-3.452 8.88 8.88 0 0 0-1.893-2.84A8.882 8.882 0 0 0 12.336.7 8.732 8.732 0 0 0 8.886 0a8.73 8.73 0 0 0-3.452.7 8.88 8.88 0 0 0-2.84 1.894A8.883 8.883 0 0 0 .7 5.434a8.73 8.73 0 0 0-.7 3.45 8.73 8.73 0 0 0 .7 3.452 8.88 8.88 0 0 0 1.893 2.84 8.884 8.884 0 0 0 2.84 1.893c1.098.467 2.249.7 3.452.7 1.85 0 3.53-.521 5.035-1.565l4.33 4.316c.302.32.68.48 1.135.48.437 0 .816-.16 1.135-.48.32-.32.48-.698.48-1.135 0-.446-.155-.825-.467-1.136zm-7.654-5.37c-1.106 1.106-2.438 1.66-3.994 1.66-1.557 0-2.888-.554-3.994-1.66-1.107-1.106-1.66-2.438-1.66-3.994 0-1.557.553-2.888 1.66-3.995 1.106-1.106 2.437-1.66 3.994-1.66 1.556 0 2.888.554 3.994 1.66 1.107 1.107 1.66 2.438 1.66 3.995 0 1.556-.554 2.888-1.66 3.994z" fill="#0392CC"/></svg>