<svg width="27" height="16" viewBox="0 0 27 16" fill="none" xmlns="http://www.w3.org/2000/svg"><path fill-rule="evenodd" clip-rule="evenodd" d="M22.41 9.8c.857.836 1.761 1.624 2.53 2.545.339.41.66.832.906 1.307.348.676.033 1.419-.572 1.46l-3.762-.002c-.97.08-1.744-.31-2.395-.975-.52-.53-1.003-1.096-1.504-1.645a3.57 3.57 0 0 0-.677-.602c-.514-.333-.96-.231-1.253.305-.299.545-.366 1.149-.396 1.756-.04.887-.308 1.12-1.198 1.16-1.901.09-3.706-.198-5.382-1.158-1.478-.846-2.625-2.041-3.622-3.394C3.142 7.923 1.655 5.03.318 2.053c-.301-.67-.08-1.03.658-1.043C2.203.987 3.43.988 4.66 1.01c.499.007.829.293 1.022.765.663 1.634 1.476 3.188 2.496 4.63.271.383.548.767.943 1.037.436.299.768.2.973-.287.13-.308.187-.64.217-.97.097-1.137.11-2.271-.06-3.404-.105-.707-.503-1.164-1.208-1.298-.36-.068-.306-.202-.132-.407C9.213.72 9.497.5 10.064.5h4.251c.67.132.818.433.91 1.107l.004 4.727c-.008.26.13 1.035.6 1.207.375.123.623-.178.848-.416 1.018-1.081 1.745-2.36 2.394-3.682a24.01 24.01 0 0 0 .775-1.79c.178-.448.457-.668.962-.659l4.091.004c.122 0 .244.002.362.022.69.118.878.414.665 1.088-.335 1.057-.988 1.938-1.626 2.824-.683.945-1.413 1.857-2.09 2.808-.62.868-.572 1.305.2 2.06z" fill="#fff"/></svg>