<svg width="28" height="19" viewBox="0 0 28 19" fill="none" xmlns="http://www.w3.org/2000/svg"><path d="M26.93 1.667C25.94.527 24.113.062 20.62.062H7.944c-3.572 0-5.431.495-6.418 1.708C.564 2.953.564 4.696.564 7.108v4.597c0 4.673 1.142 7.045 7.38 7.045H20.62c3.028 0 4.706-.41 5.792-1.416C27.525 16.304 28 14.62 28 11.704V7.109c0-2.544-.074-4.297-1.07-5.441zm-8.752 8.374l-5.756 2.912a.908.908 0 0 1-.868-.027.851.851 0 0 1-.427-.733V6.39c0-.3.162-.577.426-.732a.91.91 0 0 1 .867-.028l5.756 2.893c.293.147.477.44.477.759 0 .32-.182.612-.475.76z" fill="#fff"/></svg>